<svg xmlns="http://www.w3.org/2000/svg" viewBox="0 0 400 400" width="400" height="400">
  <defs>
    <linearGradient id="g6" x1="1" y1="0" x2="0" y2="1">
      <stop offset="0%" stop-color="#1C1410"/>
      <stop offset="100%" stop-color="#2D2621"/>
    </linearGradient>
  </defs>
  <!-- Very dark base -->
  <rect width="400" height="400" fill="url(#g6)"/>
  <!-- Scattered fine dots — film grain feel -->
  <g fill="#F0ECE6" opacity="0.18">
    <circle cx="23" cy="47" r="1.2"/>
    <circle cx="71" cy="12" r="0.8"/>
    <circle cx="145" cy="33" r="1"/>
    <circle cx="198" cy="67" r="1.4"/>
    <circle cx="267" cy="19" r="0.9"/>
    <circle cx="334" cy="52" r="1.1"/>
    <circle cx="389" cy="28" r="0.8"/>
    <circle cx="45" cy="98" r="0.9"/>
    <circle cx="112" cy="115" r="1.3"/>
    <circle cx="179" cy="89" r="0.8"/>
    <circle cx="243" cy="134" r="1"/>
    <circle cx="311" cy="101" r="1.2"/>
    <circle cx="378" cy="118" r="0.9"/>
    <circle cx="67" cy="167" r="1.1"/>
    <circle cx="134" cy="183" r="0.8"/>
    <circle cx="201" cy="156" r="1.3"/>
    <circle cx="256" cy="198" r="0.9"/>
    <circle cx="323" cy="172" r="1"/>
    <circle cx="37" cy="234" r="1.2"/>
    <circle cx="89" cy="256" r="0.8"/>
    <circle cx="156" cy="223" r="1"/>
    <circle cx="212" cy="267" r="1.4"/>
    <circle cx="278" cy="241" r="0.9"/>
    <circle cx="345" cy="259" r="1.1"/>
    <circle cx="15" cy="301" r="0.8"/>
    <circle cx="78" cy="318" r="1.2"/>
    <circle cx="167" cy="289" r="0.9"/>
    <circle cx="234" cy="334" r="1"/>
    <circle cx="298" cy="307" r="1.3"/>
    <circle cx="356" cy="323" r="0.8"/>
    <circle cx="52" cy="367" r="1.1"/>
    <circle cx="123" cy="389" r="0.9"/>
    <circle cx="189" cy="356" r="1.2"/>
    <circle cx="247" cy="378" r="0.8"/>
    <circle cx="312" cy="345" r="1"/>
    <circle cx="374" cy="363" r="1.3"/>
  </g>
  <!-- Accent glow — off-centre -->
  <ellipse cx="140" cy="260" rx="90" ry="60" fill="#E89B6D" opacity="0.12"/>
  <ellipse cx="260" cy="150" rx="70" ry="50" fill="#FF7726" opacity="0.09"/>
  <!-- Single bright horizontal strip -->
  <rect x="0" y="196" width="400" height="8" fill="#E89B6D" opacity="0.3"/>
</svg>
