<svg xmlns="http://www.w3.org/2000/svg" viewBox="0 0 400 400" width="400" height="400">
  <defs>
    <linearGradient id="g5a" x1="0" y1="0" x2="1" y2="0">
      <stop offset="0%" stop-color="#E89B6D" stop-opacity="0.8"/>
      <stop offset="100%" stop-color="#FF7726" stop-opacity="0.6"/>
    </linearGradient>
    <linearGradient id="g5b" x1="0" y1="0" x2="0" y2="1">
      <stop offset="0%" stop-color="#FDFCFB"/>
      <stop offset="100%" stop-color="#F7F4EF"/>
    </linearGradient>
  </defs>
  <!-- Warm cream base -->
  <rect width="400" height="400" fill="url(#g5b)"/>
  <!-- Undulating wave lines — organic, not mechanical -->
  <g stroke="#2D2621" stroke-width="0.7" fill="none" opacity="0.12">
    <path d="M0,40 C100,20 200,60 300,35 S400,50 500,40"/>
    <path d="M0,80 C80,65 180,100 280,75 S380,85 500,80"/>
    <path d="M0,120 C120,100 200,145 320,115 S400,130 500,120"/>
    <path d="M0,160 C90,140 210,180 300,155 S400,170 500,160"/>
    <path d="M0,200 C100,180 220,220 320,195 S400,210 500,200"/>
    <path d="M0,240 C80,220 200,260 300,235 S400,250 500,240"/>
    <path d="M0,280 C110,260 210,300 320,275 S400,290 500,280"/>
    <path d="M0,320 C90,305 200,340 310,315 S400,330 500,320"/>
    <path d="M0,360 C100,345 220,375 320,355 S400,365 500,360"/>
  </g>
  <!-- Orange accent fill stripe -->
  <path d="M0,185 C100,165 220,205 320,180 S400,195 400,185 L400,215 C300,230 180,195 80,220 S0,215 0,215 Z" fill="url(#g5a)" opacity="0.35"/>
  <!-- Thin accent line on top of fill -->
  <path d="M0,185 C100,165 220,205 320,180 S400,195 400,185" stroke="#FF7726" stroke-width="1.5" fill="none" opacity="0.6"/>
</svg>
