<svg xmlns="http://www.w3.org/2000/svg" viewBox="0 0 400 400" width="400" height="400">
  <defs>
    <linearGradient id="g3" x1="0" y1="1" x2="1" y2="0">
      <stop offset="0%" stop-color="#2D2621"/>
      <stop offset="100%" stop-color="#6E6860"/>
    </linearGradient>
  </defs>
  <!-- Dark base -->
  <rect width="400" height="400" fill="url(#g3)"/>
  <!-- Diagonal hatching — warm over dark -->
  <g stroke="#E8E1D8" stroke-width="0.5" opacity="0.15">
    <line x1="-400" y1="0" x2="400" y2="800"/>
    <line x1="-360" y1="0" x2="440" y2="800"/>
    <line x1="-320" y1="0" x2="480" y2="800"/>
    <line x1="-280" y1="0" x2="520" y2="800"/>
    <line x1="-240" y1="0" x2="560" y2="800"/>
    <line x1="-200" y1="0" x2="600" y2="800"/>
    <line x1="-160" y1="0" x2="640" y2="800"/>
    <line x1="-120" y1="0" x2="680" y2="800"/>
    <line x1="-80" y1="0" x2="720" y2="800"/>
    <line x1="-40" y1="0" x2="760" y2="800"/>
    <line x1="0" y1="0" x2="800" y2="800"/>
    <line x1="40" y1="0" x2="840" y2="800"/>
    <line x1="80" y1="0" x2="880" y2="800"/>
    <line x1="120" y1="0" x2="920" y2="800"/>
    <line x1="160" y1="0" x2="960" y2="800"/>
    <line x1="200" y1="0" x2="1000" y2="800"/>
    <line x1="240" y1="0" x2="1040" y2="800"/>
    <line x1="280" y1="0" x2="1080" y2="800"/>
    <line x1="320" y1="0" x2="1120" y2="800"/>
    <line x1="360" y1="0" x2="1160" y2="800"/>
  </g>
  <!-- Accent orange bar — strong horizontal -->
  <rect x="0" y="155" width="400" height="90" fill="#E89B6D" opacity="0.18"/>
  <rect x="0" y="185" width="400" height="30" fill="#FF7726" opacity="0.12"/>
  <!-- Thin bright line -->
  <line x1="0" y1="200" x2="400" y2="200" stroke="#FDFCFB" stroke-width="0.8" opacity="0.35"/>
</svg>
