<?xml version="1.0" encoding="UTF-8" standalone="no"?>
<!DOCTYPE svg PUBLIC "-//W3C//DTD SVG 1.1//EN" "http://www.w3.org/Graphics/SVG/1.1/DTD/svg11.dtd">
<svg width="100%" height="100%" viewBox="0 0 1000 150" version="1.1" xmlns="http://www.w3.org/2000/svg" xmlns:xlink="http://www.w3.org/1999/xlink" xml:space="preserve" xmlns:serif="http://www.serif.com/" style="fill-rule:evenodd;clip-rule:evenodd;stroke-linejoin:round;stroke-miterlimit:2;">
    <g transform="matrix(1,0,0,1,-228.68102,-624)">
        <g transform="matrix(1.015761,0,0,1.000961,108.93077,-120.994363)">
            <g transform="matrix(0.089795,0,0,0.092865,117.892102,725.056142)">
                <g transform="matrix(1,0,0,1,-635,-340.185752)">
                    <g transform="matrix(1.343408,0,0,1.343408,561.233456,423.417408)">
                        <g transform="matrix(1.328873,0,0,1.562305,-1752.357333,-246.307562)">
                            <path d="M1360,985.49L1360,443.476L1527.864,216.627L2348.712,216.627L1360,985.49Z" style="fill:rgb(26,26,26);fill-rule:nonzero;"/>
                        </g>
                    </g>
                    <g transform="matrix(1.343408,0,0,1.343408,561.233456,423.417408)">
                        <g transform="matrix(1.328873,0,0,1.522132,-1657.821645,-86.615451)">
                            <path d="M1511.548,906.586L2372.002,906.586L2471,705.467L2471,117.431L1511.548,906.586Z" style="fill:rgb(255,119,38);fill-rule:nonzero;"/>
                        </g>
                    </g>
                </g>
            </g>
            <g transform="matrix(0.733144,0,0,0.733144,384.893249,700.943562)">
                <g transform="matrix(1,0,0,1,-31.4544,150.007442)">
                    <g transform="matrix(134,0,0,134,0,22.412496)">
                        <path d="M0.043,-0.049L0.445,-0.639L0.531,-0.639L0.13,-0.049L0.043,-0.049ZM0.043,-0L0.043,-0.049L0.105,-0.067L0.524,-0.067L0.524,-0L0.043,-0ZM0.062,-0.621L0.062,-0.688L0.531,-0.688L0.531,-0.639L0.468,-0.621L0.062,-0.621Z" style="fill:rgb(26,26,26);fill-rule:nonzero;"/>
                    </g>
                    <g transform="matrix(134,0,0,134,75.576,22.412496)">
                        <path d="M0.037,-0L0.319,-0.688L0.373,-0.688L0.653,-0L0.574,-0L0.331,-0.608L0.359,-0.608L0.115,-0L0.037,-0ZM0.166,-0.179L0.166,-0.243L0.525,-0.243L0.525,-0.179L0.166,-0.179Z" style="fill:rgb(26,26,26);fill-rule:nonzero;"/>
                    </g>
                    <g transform="matrix(134,0,0,134,162.81,22.412496)">
                        <path d="M0.4,0.01C0.35,0.01 0.304,0.001 0.262,-0.017C0.22,-0.035 0.183,-0.06 0.152,-0.093C0.121,-0.125 0.096,-0.163 0.079,-0.206C0.062,-0.249 0.053,-0.295 0.053,-0.345C0.053,-0.394 0.062,-0.44 0.079,-0.483C0.096,-0.526 0.12,-0.564 0.151,-0.596C0.182,-0.627 0.219,-0.653 0.261,-0.671C0.303,-0.689 0.348,-0.698 0.397,-0.698C0.45,-0.698 0.497,-0.689 0.538,-0.67C0.58,-0.651 0.617,-0.626 0.648,-0.593L0.598,-0.542C0.574,-0.569 0.545,-0.59 0.511,-0.605C0.477,-0.62 0.439,-0.628 0.397,-0.628C0.358,-0.628 0.323,-0.621 0.29,-0.607C0.258,-0.593 0.229,-0.573 0.205,-0.547C0.181,-0.522 0.162,-0.492 0.149,-0.457C0.136,-0.423 0.13,-0.385 0.13,-0.345C0.13,-0.304 0.136,-0.266 0.149,-0.232C0.163,-0.197 0.181,-0.167 0.206,-0.141C0.23,-0.115 0.258,-0.096 0.291,-0.082C0.324,-0.068 0.359,-0.06 0.398,-0.06C0.442,-0.06 0.481,-0.068 0.515,-0.084C0.55,-0.099 0.579,-0.12 0.603,-0.146L0.653,-0.096C0.622,-0.063 0.585,-0.037 0.542,-0.018C0.5,0.001 0.452,0.01 0.4,0.01Z" style="fill:rgb(26,26,26);fill-rule:nonzero;"/>
                    </g>
                    <g transform="matrix(134,0,0,134,257.682,22.412496)">
                        <path d="M0.088,-0L0.088,-0.688L0.161,-0.688L0.161,-0L0.088,-0ZM0.538,-0L0.538,-0.688L0.612,-0.688L0.612,-0L0.538,-0ZM0.136,-0.322L0.136,-0.389L0.559,-0.389L0.559,-0.322L0.136,-0.322Z" style="fill:rgb(26,26,26);fill-rule:nonzero;"/>
                    </g>
                    <g transform="matrix(134,0,0,134,353.425,22.412496)">
                    </g>
                    <g transform="matrix(134,0,0,134,384.245,22.412496)">
                        <path d="M0.135,-0L0.135,-0.065L0.353,-0.065C0.398,-0.065 0.434,-0.077 0.46,-0.103C0.486,-0.128 0.499,-0.16 0.499,-0.198C0.499,-0.223 0.493,-0.245 0.482,-0.265C0.47,-0.285 0.454,-0.301 0.433,-0.312C0.412,-0.324 0.387,-0.33 0.359,-0.33L0.135,-0.33L0.135,-0.394L0.348,-0.394C0.385,-0.394 0.414,-0.404 0.436,-0.424C0.458,-0.444 0.468,-0.472 0.469,-0.509C0.468,-0.545 0.457,-0.574 0.433,-0.594C0.41,-0.614 0.379,-0.624 0.34,-0.624L0.135,-0.624L0.135,-0.688L0.342,-0.688C0.385,-0.688 0.421,-0.68 0.451,-0.665C0.481,-0.65 0.503,-0.629 0.519,-0.603C0.534,-0.577 0.542,-0.547 0.542,-0.514C0.542,-0.476 0.532,-0.443 0.512,-0.415C0.492,-0.387 0.462,-0.366 0.423,-0.352L0.43,-0.376C0.475,-0.362 0.51,-0.338 0.535,-0.306C0.56,-0.275 0.573,-0.237 0.573,-0.193C0.573,-0.156 0.564,-0.123 0.546,-0.094C0.528,-0.065 0.503,-0.042 0.469,-0.025C0.436,-0.008 0.395,-0 0.348,-0L0.135,-0ZM0.088,-0L0.088,-0.688L0.161,-0.688L0.161,-0L0.088,-0Z" style="fill:rgb(26,26,26);fill-rule:nonzero;"/>
                    </g>
                    <g transform="matrix(134,0,0,134,469.938,22.412496)">
                        <path d="M0.088,-0L0.088,-0.688L0.161,-0.688L0.161,-0L0.088,-0ZM0.136,-0L0.136,-0.067L0.54,-0.067L0.54,-0L0.136,-0ZM0.136,-0.32L0.136,-0.385L0.509,-0.385L0.509,-0.32L0.136,-0.32ZM0.136,-0.621L0.136,-0.688L0.535,-0.688L0.535,-0.621L0.136,-0.621Z" style="fill:rgb(26,26,26);fill-rule:nonzero;"/>
                    </g>
                    <g transform="matrix(134,0,0,134,550.874,22.412496)">
                        <path d="M0.037,-0L0.319,-0.688L0.373,-0.688L0.653,-0L0.574,-0L0.331,-0.608L0.359,-0.608L0.115,-0L0.037,-0ZM0.166,-0.179L0.166,-0.243L0.525,-0.243L0.525,-0.179L0.166,-0.179Z" style="fill:rgb(26,26,26);fill-rule:nonzero;"/>
                    </g>
                    <g transform="matrix(134,0,0,134,643.2,22.412496)">
                        <path d="M0.339,0.01C0.289,0.01 0.245,-0.001 0.206,-0.023C0.166,-0.046 0.136,-0.076 0.113,-0.115C0.09,-0.154 0.079,-0.198 0.079,-0.247L0.079,-0.688L0.152,-0.688L0.152,-0.251C0.152,-0.212 0.161,-0.178 0.177,-0.15C0.193,-0.121 0.216,-0.099 0.244,-0.084C0.272,-0.068 0.304,-0.06 0.339,-0.06C0.374,-0.06 0.406,-0.068 0.433,-0.084C0.461,-0.099 0.483,-0.121 0.499,-0.15C0.515,-0.178 0.523,-0.211 0.523,-0.249L0.523,-0.688L0.597,-0.688L0.597,-0.246C0.597,-0.197 0.586,-0.153 0.563,-0.115C0.541,-0.076 0.51,-0.046 0.471,-0.023C0.432,-0.001 0.388,0.01 0.339,0.01Z" style="fill:rgb(26,26,26);fill-rule:nonzero;"/>
                    </g>
                    <g transform="matrix(134,0,0,134,735.794,22.412496)">
                        <path d="M0.311,-0L0.037,-0.688L0.117,-0.688L0.354,-0.081L0.325,-0.081L0.564,-0.688L0.642,-0.688L0.366,-0L0.311,-0Z" style="fill:rgb(26,26,26);fill-rule:nonzero;"/>
                    </g>
                    <g transform="matrix(134,0,0,134,815.926,22.412496)">
                        <path d="M0.037,-0L0.319,-0.688L0.373,-0.688L0.653,-0L0.574,-0L0.331,-0.608L0.359,-0.608L0.115,-0L0.037,-0ZM0.166,-0.179L0.166,-0.243L0.525,-0.243L0.525,-0.179L0.166,-0.179Z" style="fill:rgb(26,26,26);fill-rule:nonzero;"/>
                    </g>
                    <g transform="matrix(134,0,0,134,909.324,22.412496)">
                        <rect x="0.088" y="-0.688" width="0.073" height="0.688" style="fill:rgb(26,26,26);fill-rule:nonzero;"/>
                    </g>
                    <g transform="matrix(134,0,0,134,942.757,22.412496)">
                        <path d="M0.278,0.01C0.224,0.01 0.178,-0 0.14,-0.02C0.101,-0.04 0.067,-0.069 0.038,-0.106L0.088,-0.156C0.112,-0.123 0.139,-0.098 0.171,-0.083C0.202,-0.067 0.238,-0.059 0.281,-0.059C0.325,-0.059 0.361,-0.069 0.388,-0.088C0.415,-0.108 0.428,-0.136 0.428,-0.172C0.428,-0.199 0.422,-0.222 0.41,-0.239C0.397,-0.257 0.381,-0.271 0.36,-0.282C0.34,-0.293 0.317,-0.303 0.293,-0.312C0.268,-0.321 0.244,-0.33 0.219,-0.34C0.195,-0.349 0.172,-0.361 0.152,-0.376C0.131,-0.39 0.115,-0.409 0.102,-0.432C0.09,-0.455 0.084,-0.484 0.084,-0.519C0.084,-0.556 0.093,-0.588 0.111,-0.615C0.129,-0.641 0.153,-0.662 0.184,-0.676C0.216,-0.691 0.252,-0.698 0.291,-0.698C0.336,-0.698 0.376,-0.689 0.411,-0.672C0.446,-0.655 0.476,-0.631 0.499,-0.602L0.449,-0.551C0.427,-0.577 0.404,-0.597 0.379,-0.61C0.353,-0.623 0.324,-0.63 0.29,-0.63C0.25,-0.63 0.218,-0.62 0.194,-0.602C0.17,-0.583 0.158,-0.557 0.158,-0.523C0.158,-0.498 0.164,-0.477 0.176,-0.461C0.189,-0.445 0.205,-0.432 0.226,-0.421C0.246,-0.41 0.269,-0.401 0.293,-0.392C0.318,-0.384 0.342,-0.374 0.367,-0.364C0.391,-0.355 0.414,-0.342 0.434,-0.327C0.455,-0.312 0.471,-0.292 0.484,-0.268C0.496,-0.244 0.503,-0.214 0.503,-0.178C0.503,-0.118 0.482,-0.072 0.442,-0.039C0.402,-0.006 0.347,0.01 0.278,0.01Z" style="fill:rgb(26,26,26);fill-rule:nonzero;"/>
                    </g>
                </g>
                <g transform="matrix(1.362388,0,0,1.362388,-20.754012,255.01504)">
                    <g transform="matrix(50.988428,0,0,50.988428,0,0)">
                        <path d="M0.096,-0L0.096,-0.728L0.334,-0.728C0.385,-0.728 0.428,-0.718 0.463,-0.698C0.498,-0.678 0.524,-0.651 0.542,-0.617C0.559,-0.583 0.568,-0.545 0.568,-0.502C0.568,-0.46 0.559,-0.421 0.542,-0.387C0.524,-0.353 0.498,-0.326 0.463,-0.306C0.428,-0.286 0.385,-0.276 0.334,-0.276L0.149,-0.276L0.149,-0.338L0.331,-0.338C0.369,-0.338 0.4,-0.345 0.425,-0.359C0.45,-0.374 0.468,-0.393 0.481,-0.418C0.493,-0.443 0.499,-0.471 0.499,-0.502C0.499,-0.534 0.493,-0.562 0.481,-0.586C0.468,-0.611 0.45,-0.63 0.425,-0.645C0.4,-0.659 0.368,-0.666 0.33,-0.666L0.166,-0.666L0.166,-0L0.096,-0Z" style="fill:rgb(255,119,38);fill-rule:nonzero;"/>
                    </g>
                    <g transform="matrix(50.988428,0,0,50.988428,42.214866,0)">
                        <path d="M0.096,-0L0.096,-0.728L0.166,-0.728L0.166,-0.403L0.575,-0.403L0.575,-0.728L0.644,-0.728L0.644,-0L0.575,-0L0.575,-0.341L0.166,-0.341L0.166,-0L0.096,-0Z" style="fill:rgb(255,119,38);fill-rule:nonzero;"/>
                    </g>
                    <g transform="matrix(50.988428,0,0,50.988428,90.155948,0)">
                        <path d="M0.38,0.01C0.318,0.01 0.264,-0.006 0.216,-0.036C0.169,-0.067 0.131,-0.11 0.104,-0.166C0.077,-0.222 0.064,-0.288 0.064,-0.363C0.064,-0.439 0.077,-0.506 0.104,-0.561C0.132,-0.617 0.169,-0.661 0.216,-0.691C0.264,-0.722 0.318,-0.737 0.38,-0.737C0.441,-0.737 0.496,-0.722 0.543,-0.691C0.59,-0.661 0.628,-0.617 0.655,-0.561C0.682,-0.506 0.695,-0.439 0.695,-0.363C0.695,-0.287 0.682,-0.222 0.655,-0.166C0.628,-0.11 0.59,-0.066 0.543,-0.036C0.496,-0.005 0.441,0.01 0.38,0.01ZM0.38,-0.055C0.427,-0.055 0.469,-0.067 0.507,-0.092C0.544,-0.116 0.573,-0.151 0.595,-0.198C0.616,-0.244 0.627,-0.299 0.627,-0.363C0.627,-0.428 0.616,-0.484 0.595,-0.53C0.573,-0.576 0.544,-0.611 0.507,-0.636C0.469,-0.66 0.427,-0.673 0.38,-0.673C0.332,-0.673 0.29,-0.66 0.253,-0.636C0.215,-0.611 0.186,-0.576 0.164,-0.53C0.142,-0.484 0.132,-0.428 0.132,-0.363C0.132,-0.299 0.142,-0.244 0.164,-0.198C0.185,-0.152 0.215,-0.117 0.252,-0.092C0.29,-0.067 0.332,-0.055 0.38,-0.055Z" style="fill:rgb(255,119,38);fill-rule:nonzero;"/>
                    </g>
                    <g transform="matrix(50.988428,0,0,50.988428,137.275448,0)">
                        <path d="M0.053,-0.665L0.053,-0.728L0.583,-0.728L0.583,-0.665L0.353,-0.665L0.353,-0L0.284,-0L0.284,-0.665L0.053,-0.665Z" style="fill:rgb(255,119,38);fill-rule:nonzero;"/>
                    </g>
                    <g transform="matrix(50.988428,0,0,50.988428,178.36996,0)">
                        <path d="M0.38,0.01C0.318,0.01 0.264,-0.006 0.216,-0.036C0.169,-0.067 0.131,-0.11 0.104,-0.166C0.077,-0.222 0.064,-0.288 0.064,-0.363C0.064,-0.439 0.077,-0.506 0.104,-0.561C0.132,-0.617 0.169,-0.661 0.216,-0.691C0.264,-0.722 0.318,-0.737 0.38,-0.737C0.441,-0.737 0.496,-0.722 0.543,-0.691C0.59,-0.661 0.628,-0.617 0.655,-0.561C0.682,-0.506 0.695,-0.439 0.695,-0.363C0.695,-0.287 0.682,-0.222 0.655,-0.166C0.628,-0.11 0.59,-0.066 0.543,-0.036C0.496,-0.005 0.441,0.01 0.38,0.01ZM0.38,-0.055C0.427,-0.055 0.469,-0.067 0.507,-0.092C0.544,-0.116 0.573,-0.151 0.595,-0.198C0.616,-0.244 0.627,-0.299 0.627,-0.363C0.627,-0.428 0.616,-0.484 0.595,-0.53C0.573,-0.576 0.544,-0.611 0.507,-0.636C0.469,-0.66 0.427,-0.673 0.38,-0.673C0.332,-0.673 0.29,-0.66 0.253,-0.636C0.215,-0.611 0.186,-0.576 0.164,-0.53C0.142,-0.484 0.132,-0.428 0.132,-0.363C0.132,-0.299 0.142,-0.244 0.164,-0.198C0.185,-0.152 0.215,-0.117 0.252,-0.092C0.29,-0.067 0.332,-0.055 0.38,-0.055Z" style="fill:rgb(255,119,38);fill-rule:nonzero;"/>
                    </g>
                    <g transform="matrix(50.988428,0,0,50.988428,227.257125,0)">
                        <path d="M0.382,0.01C0.319,0.01 0.263,-0.006 0.215,-0.036C0.167,-0.067 0.13,-0.11 0.104,-0.166C0.077,-0.222 0.064,-0.288 0.064,-0.363C0.064,-0.44 0.077,-0.506 0.104,-0.562C0.13,-0.618 0.167,-0.661 0.215,-0.691C0.262,-0.722 0.316,-0.737 0.378,-0.737C0.417,-0.737 0.454,-0.731 0.487,-0.719C0.52,-0.706 0.549,-0.689 0.575,-0.667C0.6,-0.645 0.621,-0.619 0.637,-0.591C0.653,-0.562 0.664,-0.532 0.67,-0.5L0.598,-0.5C0.592,-0.524 0.582,-0.546 0.57,-0.567C0.557,-0.587 0.541,-0.606 0.523,-0.622C0.504,-0.638 0.483,-0.65 0.458,-0.659C0.434,-0.668 0.407,-0.673 0.378,-0.673C0.331,-0.673 0.289,-0.66 0.252,-0.636C0.214,-0.611 0.185,-0.576 0.164,-0.53C0.142,-0.484 0.132,-0.428 0.132,-0.363C0.132,-0.299 0.142,-0.244 0.164,-0.198C0.185,-0.152 0.215,-0.117 0.253,-0.092C0.29,-0.067 0.333,-0.055 0.382,-0.055C0.427,-0.055 0.467,-0.065 0.5,-0.085C0.534,-0.104 0.56,-0.132 0.579,-0.168C0.597,-0.205 0.607,-0.248 0.607,-0.297L0.629,-0.292L0.397,-0.292L0.397,-0.353L0.675,-0.353L0.675,-0.293C0.675,-0.232 0.662,-0.178 0.637,-0.133C0.613,-0.088 0.578,-0.052 0.534,-0.028C0.49,-0.003 0.44,0.01 0.382,0.01Z" style="fill:rgb(255,119,38);fill-rule:nonzero;"/>
                    </g>
                    <g transform="matrix(50.988428,0,0,50.988428,275.364183,0)">
                        <path d="M0.096,-0L0.096,-0.728L0.334,-0.728C0.385,-0.728 0.428,-0.718 0.463,-0.7C0.498,-0.681 0.524,-0.655 0.542,-0.622C0.559,-0.589 0.568,-0.551 0.568,-0.508C0.568,-0.466 0.559,-0.428 0.542,-0.396C0.524,-0.364 0.498,-0.338 0.463,-0.32C0.428,-0.302 0.385,-0.293 0.334,-0.293L0.135,-0.293L0.135,-0.355L0.331,-0.355C0.369,-0.355 0.4,-0.361 0.425,-0.374C0.45,-0.387 0.468,-0.404 0.481,-0.427C0.493,-0.45 0.499,-0.477 0.499,-0.508C0.499,-0.54 0.493,-0.568 0.481,-0.591C0.468,-0.615 0.449,-0.633 0.425,-0.646C0.4,-0.659 0.368,-0.666 0.33,-0.666L0.166,-0.666L0.166,-0L0.096,-0ZM0.519,-0L0.342,-0.329L0.42,-0.329L0.599,-0L0.519,-0Z" style="fill:rgb(255,119,38);fill-rule:nonzero;"/>
                    </g>
                    <g transform="matrix(50.988428,0,0,50.988428,317.894403,0)">
                        <path d="M0.028,-0L0.294,-0.728L0.376,-0.728L0.646,-0L0.572,-0L0.399,-0.476C0.39,-0.502 0.379,-0.533 0.368,-0.568C0.356,-0.603 0.343,-0.646 0.328,-0.696L0.342,-0.696C0.327,-0.646 0.314,-0.603 0.302,-0.567C0.291,-0.531 0.28,-0.501 0.271,-0.476L0.101,-0L0.028,-0ZM0.152,-0.216L0.152,-0.278L0.521,-0.278L0.521,-0.216L0.152,-0.216Z" style="fill:rgb(255,119,38);fill-rule:nonzero;"/>
                    </g>
                    <g transform="matrix(50.988428,0,0,50.988428,362.416382,0)">
                        <path d="M0.096,-0L0.096,-0.728L0.334,-0.728C0.385,-0.728 0.428,-0.718 0.463,-0.698C0.498,-0.678 0.524,-0.651 0.542,-0.617C0.559,-0.583 0.568,-0.545 0.568,-0.502C0.568,-0.46 0.559,-0.421 0.542,-0.387C0.524,-0.353 0.498,-0.326 0.463,-0.306C0.428,-0.286 0.385,-0.276 0.334,-0.276L0.149,-0.276L0.149,-0.338L0.331,-0.338C0.369,-0.338 0.4,-0.345 0.425,-0.359C0.45,-0.374 0.468,-0.393 0.481,-0.418C0.493,-0.443 0.499,-0.471 0.499,-0.502C0.499,-0.534 0.493,-0.562 0.481,-0.586C0.468,-0.611 0.45,-0.63 0.425,-0.645C0.4,-0.659 0.368,-0.666 0.33,-0.666L0.166,-0.666L0.166,-0L0.096,-0Z" style="fill:rgb(255,119,38);fill-rule:nonzero;"/>
                    </g>
                    <g transform="matrix(50.988428,0,0,50.988428,404.631249,0)">
                        <path d="M0.096,-0L0.096,-0.728L0.166,-0.728L0.166,-0.403L0.575,-0.403L0.575,-0.728L0.644,-0.728L0.644,-0L0.575,-0L0.575,-0.341L0.166,-0.341L0.166,-0L0.096,-0Z" style="fill:rgb(255,119,38);fill-rule:nonzero;"/>
                    </g>
                    <g transform="matrix(50.988428,0,0,50.988428,452.57233,0)">
                        <path d="M0.299,-0L0.299,-0.313L0.028,-0.728L0.108,-0.728L0.263,-0.49C0.279,-0.465 0.294,-0.442 0.307,-0.419C0.32,-0.396 0.334,-0.369 0.348,-0.338L0.32,-0.338C0.334,-0.369 0.348,-0.397 0.361,-0.42C0.374,-0.443 0.389,-0.466 0.404,-0.49L0.558,-0.728L0.638,-0.728L0.368,-0.313L0.368,-0L0.299,-0Z" style="fill:rgb(255,119,38);fill-rule:nonzero;"/>
                    </g>
                </g>
            </g>
        </g>
    </g>
</svg>
